<svg width="198" height="43" xmlns="http://www.w3.org/2000/svg"><g fill="none" fill-rule="evenodd"><path d="M-32-32h1440V992H-32z"/><g class="mirabeau-logo" fill="#25282A"><path d="M35.176 1.71a.3.3 0 0 0-.294-.305h-4.48a.299.299 0 0 0-.293.305v20.445c0 .168.13.305.294.305h4.479a.3.3 0 0 0 .294-.305V1.71zM103.76 1.71a.3.3 0 0 1 .294-.305h13.164a.29.29 0 0 1 .208.09.317.317 0 0 1 .085.215v3.601c0 .081-.031.159-.085.216a.29.29 0 0 1-.208.09h-8.247a.27.27 0 0 0-.265.273v3.888a.27.27 0 0 0 .265.275h7.089a.3.3 0 0 1 .293.304v3.15a.3.3 0 0 1-.293.305h-7.089a.27.27 0 0 0-.265.275v3.887a.27.27 0 0 0 .265.275h8.247a.29.29 0 0 1 .208.089.317.317 0 0 1 .085.216v3.6c0 .082-.031.16-.085.216a.29.29 0 0 1-.208.09h-13.164a.3.3 0 0 1-.294-.305V1.71zM79.732 22.172a.22.22 0 0 1-.025.196.202.202 0 0 1-.168.092h-4.31a.411.411 0 0 1-.387-.284l-1.108-3.24a.412.412 0 0 0-.387-.283h-7.455a.411.411 0 0 0-.387.284l-1.107 3.239a.412.412 0 0 1-.388.284H59.7a.204.204 0 0 1-.169-.092.224.224 0 0 1-.023-.196l7.358-20.49a.413.413 0 0 1 .385-.277h4.738c.17 0 .324.11.383.278l7.36 20.489zM66.97 14.649a.193.193 0 0 0 .022.167.175.175 0 0 0 .145.077h4.966c.057 0 .11-.029.143-.077a.19.19 0 0 0 .024-.167l-2.512-7.347a.149.149 0 0 0-.139-.101.146.146 0 0 0-.137.101L66.97 14.65zM140.867 22.172a.22.22 0 0 1-.024.196.204.204 0 0 1-.169.092h-4.31a.413.413 0 0 1-.387-.284l-1.106-3.24a.414.414 0 0 0-.388-.283h-7.455a.413.413 0 0 0-.388.284l-1.106 3.239a.415.415 0 0 1-.387.284h-4.311a.202.202 0 0 1-.168-.092.22.22 0 0 1-.025-.196l7.36-20.49a.41.41 0 0 1 .385-.277h4.736a.41.41 0 0 1 .385.278l7.358 20.489zm-12.76-7.523a.184.184 0 0 0 .021.167.175.175 0 0 0 .144.077h4.966a.175.175 0 0 0 .145-.077.189.189 0 0 0 .022-.167l-2.512-7.347a.146.146 0 0 0-.137-.101.149.149 0 0 0-.14.101l-2.51 7.347zM.665 1.71a.3.3 0 0 1 .294-.305h5.2c.116 0 .223.073.268.185l6.142 14.102a.06.06 0 0 0 .054.037.06.06 0 0 0 .055-.037l6.14-14.102a.295.295 0 0 1 .27-.185h5.2a.3.3 0 0 1 .294.305v20.445a.3.3 0 0 1-.294.305h-4.241a.3.3 0 0 1-.292-.305v-12.06a.061.061 0 0 0-.048-.06.059.059 0 0 0-.065.035l-5.47 12.205a.295.295 0 0 1-.271.185h-2.555a.295.295 0 0 1-.27-.185L5.605 10.07a.06.06 0 0 0-.067-.035.061.061 0 0 0-.047.06v12.06a.3.3 0 0 1-.294.305H.958a.3.3 0 0 1-.293-.305V1.71zM93.856 22.46H83.26a.308.308 0 0 1-.22-.094.332.332 0 0 1-.09-.229V1.728c0-.177.14-.323.31-.323h9.584c3.037 0 5.5 2.56 5.5 5.714a5.79 5.79 0 0 1-2.087 4.482c1.836.926 3.1 2.882 3.1 5.143 0 3.157-2.463 5.715-5.5 5.715zm.866-6.355c0-.624-.239-1.284-.663-1.725a2.22 2.22 0 0 0-1.6-.689h-4.367c-.149 0-.27.128-.27.283v4.26c0 .157.121.283.27.283h4.367c.601 0 1.176-.248 1.6-.688.424-.441.663-1.101.663-1.724zm-1.074-8.342c0-1.298-1.012-2.412-2.263-2.412h-3.293c-.149 0-.27.126-.27.283v4.26c0 .157.121.283.27.283h3.293c1.25 0 2.263-1.115 2.263-2.414zM156.286 14.371V1.693a.292.292 0 0 1 .086-.199.273.273 0 0 1 .207-.093h4.537c.078 0 .152.031.208.093.055.056.086.13.086.211v12.177c0 4.984-3.889 9.027-8.685 9.027h-1.21c-4.796 0-8.565-4.043-8.565-9.027V1.705c0-.08.031-.155.086-.21a.273.273 0 0 1 .208-.094h4.537c.078 0 .152.031.207.093.055.056.086.13.086.211v12.666c0 2.356 1.838 4.266 4.106 4.266 1.089 0 2.133-.453 2.903-1.252a4.35 4.35 0 0 0 1.203-3.014zM181.903 22.787a.32.32 0 0 1-.21.146.3.3 0 0 1-.246-.061l-3.744-2.823a.338.338 0 0 1-.13-.224.35.35 0 0 1 .066-.254l4.76-6.3a.139.139 0 0 0-.07-.218l-7.386-2.114a.309.309 0 0 1-.197-.163.343.343 0 0 1-.023-.26l1.43-4.574a.319.319 0 0 1 .416-.206l7.2 2.738c.043.018.09.006.126-.018a.148.148 0 0 0 .055-.122l-.314-7.929a.351.351 0 0 1 .089-.248.311.311 0 0 1 .231-.103h4.628c.087 0 .17.036.231.103.06.067.093.158.09.248l-.317 7.923a.148.148 0 0 0 .055.122.15.15 0 0 0 .124.018l7.204-2.732a.319.319 0 0 1 .415.206l1.43 4.573a.343.343 0 0 1-.022.26.309.309 0 0 1-.197.164l-7.395 2.12a.14.14 0 0 0-.091.091.156.156 0 0 0 .021.133l4.769 6.288a.352.352 0 0 1 .066.254.338.338 0 0 1-.13.224l-3.744 2.823a.3.3 0 0 1-.245.06.319.319 0 0 1-.21-.145l-4.256-6.675a.137.137 0 0 0-.112-.06.136.136 0 0 0-.112.06l-4.255 6.675zM40.99 1.401h9.621c3.445 0 6.236 2.902 6.236 6.48 0 2.77-1.67 5.133-4.02 6.056a.128.128 0 0 0-.07.075.131.131 0 0 0 .007.105l4.336 8.017a.226.226 0 0 1-.002.217.216.216 0 0 1-.18.105h-4.652a.393.393 0 0 1-.351-.217s-3.217-6.088-3.834-7.26a.358.358 0 0 0-.314-.192h-1.762a.271.271 0 0 0-.243.273v7.092a.299.299 0 0 1-.293.304h-4.48a.299.299 0 0 1-.293-.304V1.705c0-.167.131-.304.293-.304zm8.207 4.21h-3.17a.268.268 0 0 0-.188.08.295.295 0 0 0-.077.199v4.935c0 .075.028.143.077.199.05.05.117.08.187.08h3.171c1.46 0 2.642-1.234 2.642-2.746 0-1.513-1.182-2.747-2.642-2.747zM168.612 1.34a.109.109 0 0 0-.105-.112h-.212a.109.109 0 0 0-.105.111v21.334c0 .056.047.106.105.106h.212c.058 0 .105-.05.105-.106V1.34z"/><g fill-rule="nonzero"><path d="M4.42 31.666L2.22 37.198H6.62l-2.2-5.532zm3.288 8.278l-.936-2.351H2.067l-.936 2.35H.663L4.18 31.18h.48l3.517 8.764h-.468zM11.897 35.569c0-2.707 1.96-4.534 4.502-4.534 1.846 0 2.921 1.037 3.517 2.142l-1.544.789c-.354-.71-1.113-1.276-1.973-1.276-1.543 0-2.656 1.222-2.656 2.879 0 1.655 1.113 2.877 2.656 2.877.86 0 1.619-.565 1.973-1.274l1.544.775c-.596 1.09-1.671 2.154-3.517 2.154-2.542 0-4.502-1.839-4.502-4.532M25.229 36.764c0-.985-.557-1.84-1.568-1.84-1 0-1.557.855-1.557 1.84 0 1 .557 1.853 1.557 1.853 1.01 0 1.568-.854 1.568-1.853m-4.794 0c0-1.8 1.214-3.325 3.226-3.325 2.023 0 3.237 1.525 3.237 3.325 0 1.8-1.214 3.337-3.237 3.337-2.012 0-3.226-1.536-3.226-3.337M32.174 37.697v-2.063c-.279-.407-.86-.71-1.379-.71-.923 0-1.555.658-1.555 1.749 0 1.09.632 1.747 1.555 1.747.52 0 1.1-.315 1.379-.723m-4.325 3.877l.72-1.196c.494.552 1.151.775 1.91.775.771 0 1.695-.342 1.695-1.63v-.617c-.48.63-1.138.985-1.897.985-1.518 0-2.694-1.103-2.694-3.218 0-2.076 1.151-3.234 2.694-3.234.734 0 1.404.316 1.897.973v-.815h1.606v5.927c0 2.404-1.796 2.996-3.301 2.996-1.037 0-1.859-.25-2.63-.946M39.372 39.945v-3.838c0-.88-.443-1.182-1.126-1.182-.633 0-1.113.368-1.392.735v4.285H35.25v-6.348h1.605v.816a2.811 2.811 0 0 1 2.138-.974c1.353 0 1.998.789 1.998 2.024v4.482h-1.618zM42.447 39.945h1.606v-6.348h-1.606v6.348zm-.153-8.029c0-.552.43-.986.95-.986.53 0 .96.434.96.986 0 .551-.43.998-.96.998-.52 0-.95-.447-.95-.998zM45.254 39.945v-1.249l2.758-3.64h-2.758v-1.459H50.2v1.196l-2.807 3.692h2.857v1.46zM55.12 38.42v-.788c-.264-.368-.77-.566-1.289-.566-.632 0-1.15.355-1.15.96 0 .604.518.946 1.15.946.52 0 1.025-.184 1.29-.552zm0 1.524v-.67c-.416.525-1.137.827-1.934.827-.974 0-2.112-.682-2.112-2.102 0-1.498 1.138-2.05 2.112-2.05.822 0 1.53.277 1.935.776v-.802c0-.643-.531-1.064-1.34-1.064-.646 0-1.253.263-1.759.749l-.632-1.17c.746-.696 1.707-.998 2.67-.998 1.403 0 2.68.578 2.68 2.404v4.1h-1.62zM62.319 39.945v-3.838c0-.88-.443-1.182-1.125-1.182-.633 0-1.113.368-1.391.735v4.285h-1.607v-6.348h1.607v.816a2.808 2.808 0 0 1 2.137-.973c1.353 0 1.998.788 1.998 2.023v4.482h-1.62zM65.723 38.354v-3.298h-1.011v-1.459h1.01v-1.734h1.607v1.734h1.24v1.459h-1.24v2.85c0 .409.202.711.556.711.24 0 .47-.091.557-.197l.341 1.275c-.24.223-.67.408-1.34.408-1.126 0-1.72-.605-1.72-1.75M78.676 35.556c0-1.538-.91-2.734-2.632-2.734h-1.543v5.48h1.53c1.67 0 2.645-1.249 2.645-2.746zm-5.97 4.389V31.18h3.326c2.644 0 4.478 1.747 4.478 4.376 0 2.654-1.834 4.389-4.466 4.389h-3.339zM81.623 39.945h1.607v-6.348h-1.607v6.348zm-.152-8.029c0-.552.43-.986.95-.986.53 0 .96.434.96.986 0 .551-.43.998-.96.998-.52 0-.95-.447-.95-.998zM88.897 37.697v-2.063c-.279-.407-.86-.709-1.379-.709-.924 0-1.556.657-1.556 1.748 0 1.09.632 1.747 1.556 1.747.518 0 1.1-.315 1.379-.723m-4.326 3.877l.721-1.196c.493.552 1.15.775 1.91.775.77 0 1.695-.341 1.695-1.629v-.618c-.48.631-1.139.986-1.898.986-1.518 0-2.694-1.104-2.694-3.22 0-2.075 1.151-3.232 2.694-3.232.734 0 1.404.315 1.898.972v-.815h1.605v5.927c0 2.404-1.795 2.996-3.3 2.996-1.037 0-1.86-.25-2.631-.946M91.971 39.945h1.607v-6.348H91.97v6.348zm-.15-8.029c0-.552.428-.986.948-.986.53 0 .96.434.96.986 0 .551-.43.998-.96.998-.52 0-.949-.447-.949-.998zM95.374 38.354v-3.298h-1.012v-1.459h1.012v-1.734h1.607v1.734h1.239v1.459h-1.24v2.85c0 .409.203.711.556.711.241 0 .468-.091.557-.197l.341 1.275c-.24.223-.67.408-1.34.408-1.126 0-1.72-.605-1.72-1.75M102.862 38.42v-.788c-.266-.368-.771-.566-1.29-.566-.633 0-1.15.355-1.15.96 0 .604.517.946 1.15.946.519 0 1.024-.184 1.29-.552zm0 1.524v-.67c-.418.525-1.138.827-1.935.827-.974 0-2.113-.682-2.113-2.102 0-1.498 1.14-2.05 2.113-2.05.822 0 1.531.277 1.935.776v-.802c0-.643-.53-1.064-1.34-1.064-.646 0-1.253.263-1.758.749l-.632-1.17c.745-.696 1.707-.998 2.668-.998 1.403 0 2.681.578 2.681 2.404v4.1h-1.619zM105.937 31.18h1.607v8.765h-1.607zM117.372 37.303c0-.552-.38-.999-1.075-.999h-2.328v1.998h2.328c.67 0 1.075-.368 1.075-.999zm-.166-3.561c0-.538-.379-.92-.986-.92h-2.251v1.84h2.251c.607 0 .986-.355.986-.92zm-5.034 6.202V31.18h4.44c1.606 0 2.429 1.064 2.429 2.233 0 1.091-.658 1.84-1.455 2.011.91.145 1.62 1.052 1.62 2.141 0 1.328-.836 2.379-2.455 2.379h-4.579zM124.518 39.945v-.803c-.417.474-1.15.96-2.15.96-1.34 0-1.973-.762-1.973-1.997v-4.508h1.607v3.851c0 .88.443 1.17 1.125 1.17.62 0 1.113-.355 1.391-.723v-4.298h1.607v6.348h-1.607zM127.062 39.116l.696-1.21c.455.448 1.353.882 2.112.882.695 0 1.025-.276 1.025-.67 0-1.038-3.617-.184-3.617-2.68 0-1.065.885-1.998 2.503-1.998 1.025 0 1.847.368 2.454.867l-.645 1.182c-.366-.393-1.062-.735-1.809-.735-.58 0-.96.262-.96.617 0 .934 3.63.145 3.63 2.708 0 1.169-.963 2.022-2.657 2.022-1.063 0-2.086-.367-2.732-.985M133.5 39.945h1.607v-6.348H133.5v6.348zm-.152-8.029c0-.552.43-.986.95-.986.53 0 .96.434.96.986 0 .551-.43.998-.96.998-.52 0-.95-.447-.95-.998zM140.697 39.945v-3.838c0-.88-.442-1.182-1.125-1.182-.632 0-1.114.368-1.39.735v4.285h-1.608v-6.348h1.607v.816a2.808 2.808 0 0 1 2.138-.973c1.353 0 1.998.788 1.998 2.023v4.482h-1.62zM146.542 34.807c-.998 0-1.429.723-1.492 1.353h3.01c-.05-.604-.455-1.353-1.518-1.353m-3.162 1.957c0-1.839 1.316-3.324 3.162-3.324 1.834 0 3.06 1.419 3.06 3.482v.394h-4.54c.114.776.721 1.42 1.759 1.42.518 0 1.226-.224 1.619-.618l.72 1.104c-.607.578-1.568.88-2.516.88-1.86 0-3.264-1.301-3.264-3.338M150.11 39.116l.695-1.21c.456.448 1.354.882 2.114.882.695 0 1.023-.276 1.023-.67 0-1.038-3.617-.184-3.617-2.68 0-1.065.886-1.998 2.505-1.998 1.023 0 1.846.368 2.453.867l-.646 1.182c-.366-.393-1.062-.735-1.807-.735-.582 0-.962.262-.962.617 0 .934 3.63.145 3.63 2.708 0 1.169-.961 2.022-2.656 2.022-1.062 0-2.087-.367-2.732-.985M156.713 37.907c.455.447 1.353.88 2.112.88.696 0 1.025-.275 1.025-.67 0-1.037-3.617-.183-3.617-2.68 0-1.064.885-1.997 2.504-1.997 1.024 0 1.847.368 2.454.867l-.646 1.182c-.366-.393-1.062-.735-1.808-.735-.582 0-.961.262-.961.617 0 .934 3.63.145 3.63 2.708 0 1.169-.961 2.022-2.657 2.022-1.062 0-2.086-.367-2.732-.985l.696-1.21z"/></g></g></g></svg>